<svg id="Layer" enable-background="new 0 0 512 512" height="30" viewBox="0 0 512 512" width="30" xmlns="http://www.w3.org/2000/svg"><path d="m192 24v464h-44c-33.14 0-60-26.86-60-60v-108l-64-64 64-64v-108c0-33.14 26.86-60 60-60z" fill="#f0eaea"/><path d="m320 488v-464h44c33.14 0 60 26.86 60 60v108l64 64-64 64v108c0 33.14-26.86 60-60 60z" fill="#f0eaea"/><path d="m448 182.059v-98.059c0-46.317-37.682-84-84-84h-44c-13.255 0-24 10.745-24 24s10.745 24 24 24h44c19.851 0 36 16.149 36 36v108c0 6.365 2.529 12.47 7.029 16.971l47.03 47.029-47.029 47.029c-4.501 4.501-7.03 10.606-7.03 16.971v108c0 19.851-16.149 36-36 36h-44c-13.255 0-24 10.745-24 24s10.745 24 24 24h44c46.318 0 84-37.683 84-84v-98.059l56.971-56.971c9.373-9.373 9.373-24.568 0-33.941z"/><path d="m216 488c0 13.25-10.75 24-24 24h-44c-22.84 0-43.58-9.16-58.73-24-15.59-15.26-25.27-36.52-25.27-60v-98.06l-56.97-56.97c-4.69-4.69-7.03-10.83-7.03-16.97s2.34-12.28 7.03-16.97l56.97-56.97v-98.06c0-23.48 9.68-44.74 25.27-60 15.15-14.84 35.89-24 58.73-24h44c13.25 0 24 10.75 24 24s-10.75 24-24 24h-44c-19.85 0-36 16.15-36 36v108c0 6.37-2.53 12.47-7.03 16.97l-47.03 47.03 47.03 47.03c4.5 4.5 7.03 10.6 7.03 16.97v108c0 19.85 16.15 36 36 36h44c13.25 0 24 10.75 24 24z"/></svg>