<svg id="Filled" height="120" viewBox="0 0 512 512" width="160" xmlns="http://www.w3.org/2000/svg"><path d="m456 88c-128 0-128.012 176-208 176h.988c-80 0-97-112-177-112l.012 288h384z" fill="#2978b8"/><path d="m456 280v160h-384v-160h48c64 0 64-224 128-224s63.99 224 127.99 224z" fill="#8f9e46"/><path d="m72 216h32v224h-32z" fill="#3397e8"/><path d="m104 328h32v112h-32z" fill="#b1bd70"/><path d="m136 392h32v48h-32z" fill="#3397e8"/><path d="m200 360h32v80h-32z" fill="#3397e8"/><path d="m232 120h32v320h-32z" fill="#b1bd70"/><path d="m264 280h32v160h-32z" fill="#3397e8"/><path d="m360 392h32v48h-32z" fill="#b1bd70"/><path d="m392 184h32v256h-32z" fill="#3397e8"/><g fill="#b1bd70"><path d="m424 152h32v288h-32z"/><path d="m168 288h32v152h-32z"/><path d="m296 312h32v128h-32z"/></g><path d="m328 336h32v104h-32z" fill="#3397e8"/><path d="m488 448a8 8 0 0 0 -8 8v8h-432v-432h8a8 8 0 0 0 0-16h-32a8 8 0 0 0 0 16h8v440a8 8 0 0 0 8 8h440v8a8 8 0 0 0 16 0v-32a8 8 0 0 0 -8-8z"/><path d="m456 80c-34.1 0-62.685 11.7-87.4 35.778-18.6 18.122-32.4 40.43-45.293 62.649-1.224-4.232-2.431-8.455-3.624-12.631-7.955-27.845-16.181-56.638-26.466-78.237-12.675-26.62-27.466-39.559-45.217-39.559s-32.546 12.94-45.223 39.561c-10.286 21.6-18.513 50.395-26.469 78.241-3.4 11.9-6.908 24.174-10.632 35.969-24.752-28.571-50.525-57.761-93.667-57.771h-.022a8 8 0 0 0 -7.987 8v288a8 8 0 0 0 8 8h384a8 8 0 0 0 8-8v-352a8 8 0 0 0 -8-8zm-360 352h-16v-208h16zm8-224h-24v-47.549c31.722 3.49 52.524 27.481 74.439 52.786 1.751 2.021 3.539 4.079 5.338 6.138-10.623 29.604-23.191 52.625-39.777 52.625h-8v-56a8 8 0 0 0 -8-8zm24 224h-16v-96h16zm32 0h-16v-32h16zm32 0h-16v-136h16zm32 0h-16v-64h16zm32 0h-16v-304h16zm32 0h-16v-144h16zm32 0h-16v-112h16zm32 0h-16v-88h16zm32 0h-16v-32h16zm0-48h-16v-48a8 8 0 0 0 -8-8h-24v-16a8 8 0 0 0 -8-8h-24v-24a8 8 0 0 0 -8-8h-24v-152a8 8 0 0 0 -8-8h-32a8 8 0 0 0 -8 8v232h-16v-64a8 8 0 0 0 -8-8h-32a8 8 0 0 0 -8 8v96h-16v-56a8 8 0 0 0 -8-8h-24v-32h8c17.754 0 32.546-12.94 45.223-39.561 10.286-21.6 18.513-50.395 26.469-78.241 14.223-49.779 30.342-106.198 56.308-106.198s42.077 56.416 56.3 106.191c7.956 27.848 16.183 56.643 26.469 78.246 12.674 26.622 27.466 39.563 45.221 39.563h8.01zm32 48h-16v-240h16zm0-280v24h-24a8 8 0 0 0 -8 8v88h-8.01c-20.152 0-34.373-33.985-46.379-72.474.8-1.384 1.594-2.767 2.4-4.164 13.885-24.147 28.241-49.115 47.755-68.122 19.613-19.107 42.003-29.287 68.234-30.983v47.743h-24a8 8 0 0 0 -8 8zm32 280h-16v-272h16z"/></svg>